<svg width="166" height="166" viewBox="0 0 166 166" fill="none" version="1.1" id="svg2" xml:space="preserve" xmlns="http://www.w3.org/2000/svg"><defs id="defs2"></defs><filter id="a" height="1" width="1" x="0" y="0"><feColorMatrix color-interpolation-filters="sRGB" values="0 0 0 0 1 0 0 0 0 1 0 0 0 0 1 0 0 0 1 0" id="feColorMatrix1"></feColorMatrix></filter><mask id="b"><g filter="url(#a)" id="g1"><path d="m -1.6 -1.6 h 19.2 v 19.2 h -19.2 z" fill-opacity="0.5" id="path1"></path></g></mask><clipPath id="c"><path d="m 0 0 h 1600 v 1200 h -1600 z" id="path2"></path></clipPath><mask id="d"><g filter="url(#a)" id="g3"><path d="m -1.6 -1.6 h 19.2 v 19.2 h -19.2 z" fill-opacity="0.7" id="path3"></path></g></mask><clipPath id="e"><path d="m 0 0 h 1600 v 1200 h -1600 z" id="path4"></path></clipPath><mask id="f"><g filter="url(#a)" id="g5"><path d="m -1.6 -1.6 h 19.2 v 19.2 h -19.2 z" fill-opacity="0.35" id="path5"></path></g></mask><clipPath id="g"><path d="m 0 0 h 1600 v 1200 h -1600 z" id="path6"></path></clipPath><g mask="url(#b)" id="g8" transform="translate(89,91)" style="fill:#000000;fill-opacity:1"><g clip-path="url(#c)" transform="translate(-980,-120)" id="g7" style="fill:#000000;fill-opacity:1"><path d="m 550,182 c -0.35156,0.004 -0.69531,0.10156 -1,0.28125 v 3.4375 c 0.30469,0.17969 0.64844,0.27734 1,0.28125 1.10547,0 2,-0.89453 2,-2 0,-1.10547 -0.89453,-2 -2,-2 z m 0,5 c -0.33984,0 -0.67969,0.0586 -1,0.17578 V 194 h 4 v -4 c 0,-1.65625 -1.34375,-3 -3,-3 z m 0,0" id="path7" style="fill:#000000;fill-opacity:1"></path></g></g><g mask="url(#d)" id="g10" transform="translate(89,91)" style="fill:#000000;fill-opacity:1"><g clip-path="url(#e)" transform="translate(-980,-120)" id="g9" style="fill:#000000;fill-opacity:1"><path d="m 569,182 v 4 c 1.10547,0 2,-0.89453 2,-2 0,-1.10547 -0.89453,-2 -2,-2 z m 0,5 v 7 h 3 v -4 c 0,-1.65625 -1.34375,-3 -3,-3 z m 0,0" id="path8" style="fill:#000000;fill-opacity:1"></path></g></g><g mask="url(#f)" id="g12" transform="translate(89,91)" style="fill:#000000;fill-opacity:1"><g clip-path="url(#g)" transform="translate(-980,-120)" id="g11" style="fill:#000000;fill-opacity:1"><path d="m 573,182.26953 v 3.44922 c 0.61328,-0.35547 0.99609,-1.00781 1,-1.71875 0,-0.71484 -0.38281,-1.375 -1,-1.73047 z m 0,4.90625 V 194 h 2 v -4 c 0,-1.26953 -0.80078,-2.40234 -2,-2.82422 z m 0,0" id="path10" style="fill:#000000;fill-opacity:1"></path></g></g><path d="M 99.242186,47 C 97.578122,47 96.078122,47.679686 95,48.757814 L 60.757814,83 95,117.24218 C 96.078122,118.34378 97.578122,119 99.242186,119 h 6.000004 v -6 c 0,-1.64064 -0.67969,-3.14064 -1.75782,-4.24218 L 77.726558,83 103.48437,57.242186 C 104.5625,56.164064 105.24219,54.664064 105.24219,53 v -6 z m 0,0" fill="#222222" id="path12" style="fill:#000000;fill-opacity:1;stroke-width:6"></path></svg>