<svg xmlns="http://www.w3.org/2000/svg" fill="none" viewBox="0 0 166 166" height="166" width="166">
<path fill="white" d="M88.9987 58.0013C90.1217 57.9769 91.2447 58.2943 92.2213 58.8802L123.47 77.6297C127.523 80.0466 127.523 85.9303 123.47 88.3472L92.2213 107.097C91.2447 107.683 90.1217 107.976 88.9987 107.976V108C82.7489 107.976 82.7489 101.75 82.7489 101.75V64.2511C82.7489 64.2511 82.7244 58.0013 88.9987 58.0013Z"></path>
<path fill="white" d="M45.2498 58.0013C46.3729 57.9769 47.4959 58.2943 48.4724 58.8802L79.7216 77.6297C83.7742 80.0466 83.7742 85.9303 79.7216 88.3472L48.4724 107.097C47.4959 107.683 46.3729 107.976 45.2498 107.976V108C39 107.976 39 101.75 39 101.75V64.2511C39 64.2511 38.9756 58.0013 45.2498 58.0013Z"></path>
</svg>