<svg version="1.1" id="Layer_1" xmlns:x="ns_extend;" xmlns:i="ns_ai;" xmlns:graph="ns_graphs;" xmlns="http://www.w3.org/2000/svg" xmlns:xlink="http://www.w3.org/1999/xlink" x="0px" y="0px" viewBox="0 0 120.1 45" style="enable-background:new 0 0 120.1 45;" xml:space="preserve">
 <style type="text/css">
  .st0{fill:#0073CF;}
 </style>
 <metadata>
  <sfw xmlns="ns_sfw;">
   <slices>
   </slices>
   <sliceSourceBounds bottomLeftOrigin="true" height="45" width="120.1" x="111" y="188">
   </sliceSourceBounds>
  </sfw>
 </metadata>
 <g>
  <path class="st0" d="M13.4,34.5l-2.1,9.4c0,0.3-0.3,0.4-0.6,0.4H0.6c-0.1,0-0.4-0.1-0.4-0.3C0,43.9,0,43.7,0,43.6L13.4,3.1
		c0,0,0.3-0.7,1.1-1c3-0.6,7.6-1.3,10.8-1.8c0.7-0.1,1,0.6,1,0.6l13.1,43c0,0.1,0,0.3-0.1,0.4c-0.1,0.1-0.3,0.1-0.4,0.1h-5.9
		c-1.5,0-4.6,0.1-5.8,0.1c-0.3,0-0.6-0.1-0.6-0.4l-2.1-9.6L13.4,34.5z M22.8,26.2c-0.8-3.4-2.1-9.4-3.4-14.6
		c-0.9,3.7-2.8,11.1-3.8,14.6H22.8z M52.7,16.2c7.2-4.9,13.2-3.8,16.2-0.8c3.5,3.7,1.5,8.4,2.7,28.5c0,0.1,0,0.3-0.1,0.4
		c-0.1,0.1-0.3,0.1-0.4,0.1c-1.1,0-3.2-0.1-4.2-0.1c-1.7,0-5.2,0.1-6.6,0.1c-0.1,0-0.3,0-0.4-0.1c-0.1-0.1-0.1-0.3-0.1-0.4
		c0.1-19.7,0.3-22.4-3.2-22.4c-1.3,0-2.2,0.6-3.4,1c0,10.1,0.1,13.1,0.6,21.2c0,0.1,0,0.3-0.1,0.3c-0.1,0.1-0.3,0.1-0.3,0.1
		l-11.2,0.1c-0.1,0-0.3,0-0.3-0.1c-0.1-0.1-0.1-0.3-0.1-0.3c0.3-29.4,0-35.4-0.8-41.6C40.2,2,40.8,2,40.8,2c5.1-0.7,5.5-0.8,11.2-2
		c0,0,0.6,0,0.6,0.7C52.7,5.1,52.7,16.2,52.7,16.2L52.7,16.2z M91.3,41.3c-2.1,1.5-6.2,3.7-9.6,3.7c-5.2,0-8.4-3.8-8.4-9.4
		c0-8.7,10.3-11.2,17.6-12.2c0.1-1.4,0.1-3-3.5-3s-6.7,1.1-10,2.4c-0.1,0.1-0.4,0-0.6,0c-0.1-0.1-0.3-0.3-0.3-0.6l0.3-6.8
		c0-0.3,0.1-0.4,0.4-0.6c6.6-2,17.9-3.5,22.5,0.8c3,2.7,2.8,6.1,2.7,11.7c-0.1,8.2,0,10.4,0.4,16.4c0,0.1,0,0.3-0.1,0.4
		c-0.1,0.1-0.3,0.1-0.4,0.1l-10.4,0.1c-0.1,0-0.3,0-0.4-0.1c-0.1-0.1-0.1-0.3-0.1-0.4V41.3z M91,29.7c-2.7,0.3-6.7,0.6-6.7,4.1
		c0,3.1,3.4,4.1,6.7,2V29.7z M109.8,29.8c-0.3,0-0.6-0.3-0.6-0.6c-0.7-15.3-0.8-17-1.7-26.6c0-0.3,0.1-0.6,0.6-0.7l11.2-1.8
		c0.1,0,0.4,0,0.6,0.1c0.1,0.1,0.1,0.3,0.1,0.6c-0.7,6.9-1.4,20-1.5,28.3c0,0.3-0.3,0.6-0.6,0.6L109.8,29.8z M107.9,42.9
		c0-0.1,0-0.1,0-0.1c0-1.9,0.1-3.9,0.1-5.6c0-0.6,0-1.3-0.1-1.9c0-0.1,0-0.2,0.1-0.3c0-0.3,0-0.6-0.1-1c0-0.1,0-0.3,0.1-0.4
		c0.1-0.1,0.3-0.1,0.4-0.1c2.9,0.3,7.8,0.1,10.1-0.1c0.1,0,0.3,0,0.4,0.1c0.1,0.1,0.1,0.3,0.1,0.4c0,0.4,0,0.8,0,1.1
		c0,0,0,0.1,0,0.1v8.7c0,0.1,0,0.3-0.1,0.4c-0.1,0.1-0.3,0.1-0.4,0.1c-4.1-0.1-6.6-0.1-10.1,0.1c-0.1,0-0.3,0-0.4-0.1
		c-0.1-0.1-0.1-0.3-0.1-0.4C107.9,43.6,107.9,43.2,107.9,42.9L107.9,42.9z M107.9,42.9">
  </path>
 </g>
</svg>