<svg version="1.1" id="Layer_1" xmlns:x="ns_extend;" xmlns:i="ns_ai;" xmlns:graph="ns_graphs;" xmlns="http://www.w3.org/2000/svg" xmlns:xlink="http://www.w3.org/1999/xlink" x="0px" y="0px" viewBox="0 0 44.8 40" style="enable-background:new 0 0 44.8 40;" xml:space="preserve">
 <style type="text/css">
  .st0{fill:url(#SVGID_1_);}
	.st1{fill:url(#SVGID_2_);}
	.st2{fill:url(#SVGID_3_);}
	.st3{fill:url(#SVGID_4_);}
 </style>
 <metadata>
  <sfw xmlns="ns_sfw;">
   <slices>
   </slices>
   <sliceSourceBounds bottomLeftOrigin="true" height="40" width="44.8" x="-83.2" y="-185.7">
   </sliceSourceBounds>
  </sfw>
 </metadata>
 <g>
  <g>
   <linearGradient id="SVGID_1_" gradientUnits="userSpaceOnUse" x1="144.2044" y1="-103.7333" x2="114.7323" y2="-133.8588" gradientTransform="matrix(1 0 0 -1 -106 -85.3159)">
    <stop offset="0" style="stop-color:#11A06B">
    </stop>
    <stop offset="1" style="stop-color:#286FEB">
    </stop>
   </linearGradient>
   <path class="st0" d="M14.7,32.9l-1.1,1.4l2.5,3.9L15.8,40h10.6l0.7-1.8l-4.2-5.3H14.7z">
   </path>
   <linearGradient id="SVGID_2_" gradientUnits="userSpaceOnUse" x1="144.1071" y1="-103.6382" x2="114.635" y2="-133.7637" gradientTransform="matrix(1 0 0 -1 -106 -85.3159)">
    <stop offset="0" style="stop-color:#11A06B">
    </stop>
    <stop offset="1" style="stop-color:#286FEB">
    </stop>
   </linearGradient>
   <path class="st1" d="M20.5,9.4L16.7,16L35.3,38l-0.5,2h8.5l1.5-7.1L24.9,9.4L20.5,9.4z">
   </path>
   <linearGradient id="SVGID_3_" gradientUnits="userSpaceOnUse" x1="135.4391" y1="-95.1581" x2="105.967" y2="-125.2836" gradientTransform="matrix(1 0 0 -1 -106 -85.3159)">
    <stop offset="0" style="stop-color:#11A06B">
    </stop>
    <stop offset="1" style="stop-color:#286FEB">
    </stop>
   </linearGradient>
   <path class="st2" d="M23,4.4l-1.8,3.3h4.5l7.7,9.2l4.6-3.8v-2.4l-1.6-2.2l1.2-1.2L28.4,0L23,4.4z">
   </path>
   <linearGradient id="SVGID_4_" gradientUnits="userSpaceOnUse" x1="136.2907" y1="-95.9913" x2="106.8186" y2="-126.1168" gradientTransform="matrix(1 0 0 -1 -106 -85.3159)">
    <stop offset="0" style="stop-color:#11A06B">
    </stop>
    <stop offset="1" style="stop-color:#286FEB">
    </stop>
   </linearGradient>
   <path class="st3" d="M9.1,22.9H6.6L0,31.3V40h7.1l1.3-1.6l5.5-7.1h7.9l2.4-3.7l-8.6-10.2L9.1,22.9z">
   </path>
  </g>
 </g>
</svg>