<svg xmlns="http://www.w3.org/2000/svg" fill="none" viewBox="0 0 166 166" height="166" width="166">
<path fill="white" d="M76.5112 58.0013C75.3882 57.9769 74.2652 58.2943 73.2887 58.8802L42.0395 77.6297C37.9868 80.0466 37.9868 85.9303 42.0395 88.3472L73.2887 107.097C74.2652 107.683 75.3882 107.976 76.5112 107.976V108C82.7611 107.976 82.7611 101.75 82.7611 101.75V64.2511C82.7611 64.2511 82.7855 58.0013 76.5112 58.0013Z"></path>
<path fill="white" d="M120.26 58.0013C119.137 57.9769 118.014 58.2943 117.038 58.8802L85.7883 77.6297C81.7357 80.0466 81.7357 85.9303 85.7883 88.3472L117.038 107.097C118.014 107.683 119.137 107.976 120.26 107.976V108C126.51 107.976 126.51 101.75 126.51 101.75V64.2511C126.51 64.2511 126.534 58.0013 120.26 58.0013Z"></path>
</svg>